# xmcd
#
# Track frame offsets:
#	150
#	13075
#	26495
#	37422
#	49902
#	69392
#	83265
#	97797
#	113437
#	119492
#	127815
#	147505
#
# Disc length: 2157 seconds
#
# Revision: 3
# Processed by: cddbd v1.5PL3 Copyright (c) Steve Scherf et al.
# Submitted via: dBpowerAMP V4.0
#
DISCID=96086b0c
DTITLE=T-Bone Walker - T-Bone's That Way
DYEAR=1900
DGENRE=Blues
TTITLE0=Stormy Monday Blues
TTITLE1=All Night Long
TTITLE2=My Patience Keeps Running Out
TTITLE3=Glamour Girl
TTITLE4=T-Bone's That Way
TTITLE5=That Evening Train
TTITLE6=Louisiana Bayou Drive
TTITLE7=When We Were Schoolmates
TTITLE8=Don't Go Back To New Orleans
TTITLE9=Got To Cross The Deep Blue Sea
TTITLE10=(You'll Never Find Anyone) To Be A Slave Like Me
TTITLE11=Left Home When I Was A Kid
EXTD=
EXTT0=
EXTT1=
EXTT2=
EXTT3=
EXTT4=
EXTT5=
EXTT6=
EXTT7=
EXTT8=
EXTT9=
EXTT10=
EXTT11=
PLAYORDER=
